<svg width="45" height="44" viewBox="0 0 45 44" fill="none" xmlns="http://www.w3.org/2000/svg">
<circle cx="22.5" cy="22" r="20" fill="white" stroke="#F2F5F7" stroke-width="4"/>
<path d="M4.5 22C4.5 20.8954 3.60457 20 2.5 20C1.39543 20 0.5 20.8954 0.5 22H4.5ZM40.5 22C40.5 31.9411 32.4411 40 22.5 40V44C34.6503 44 44.5 34.1503 44.5 22H40.5ZM22.5 40C12.5589 40 4.5 31.9411 4.5 22H0.5C0.5 34.1503 10.3497 44 22.5 44V40ZM22.5 4C32.4411 4 40.5 12.0589 40.5 22H44.5C44.5 9.84974 34.6503 0 22.5 0V4Z" fill="#069169"/>
<path d="M7.47568 17.1H15.3207V18.675C14.0807 19.915 13.2107 21.22 12.7107 22.59C12.2107 23.95 11.9607 25.42 11.9607 27H9.90568C9.90568 25.47 10.1757 24.02 10.7157 22.65C11.2557 21.28 12.1007 19.995 13.2507 18.795H7.47568V17.1ZM19.9858 27.15C19.1158 27.15 18.3808 26.97 17.7808 26.61C17.1908 26.25 16.7058 25.7 16.3258 24.96L18.1858 24.03C18.3158 24.47 18.5208 24.825 18.8008 25.095C19.0808 25.365 19.4908 25.5 20.0308 25.5C20.5808 25.5 21.0108 25.355 21.3208 25.065C21.6408 24.775 21.8008 24.36 21.8008 23.82C21.8008 23.28 21.6508 22.87 21.3508 22.59C21.0608 22.31 20.6358 22.17 20.0758 22.17C19.2558 22.17 18.6508 22.41 18.2608 22.89L16.6408 22.59L17.2558 17.1H23.2408V18.765H18.8158L18.5158 21.18L18.4708 21.375H18.5008C18.7108 21.145 18.9958 20.965 19.3558 20.835C19.7258 20.695 20.1458 20.625 20.6158 20.625C21.2558 20.625 21.8058 20.755 22.2658 21.015C22.7358 21.275 23.0958 21.64 23.3458 22.11C23.5958 22.57 23.7208 23.1 23.7208 23.7C23.7208 24.46 23.5508 25.1 23.2108 25.62C22.8808 26.13 22.4308 26.515 21.8608 26.775C21.3008 27.025 20.6758 27.15 19.9858 27.15ZM27.5763 16.95C28.3763 16.95 29.0163 17.205 29.4963 17.715C29.9763 18.225 30.2163 18.9 30.2163 19.74C30.2163 20.58 29.9763 21.255 29.4963 21.765C29.0163 22.275 28.3763 22.53 27.5763 22.53C26.7763 22.53 26.1363 22.275 25.6563 21.765C25.1763 21.255 24.9363 20.58 24.9363 19.74C24.9363 18.9 25.1763 18.225 25.6563 17.715C26.1363 17.205 26.7763 16.95 27.5763 16.95ZM27.0813 27L33.7563 17.1H35.4063L28.7313 27H27.0813ZM27.5763 18.375C27.2363 18.375 26.9763 18.495 26.7963 18.735C26.6163 18.975 26.5263 19.31 26.5263 19.74C26.5263 20.17 26.6163 20.505 26.7963 20.745C26.9763 20.975 27.2363 21.09 27.5763 21.09C27.9163 21.09 28.1763 20.975 28.3563 20.745C28.5363 20.505 28.6263 20.17 28.6263 19.74C28.6263 19.31 28.5363 18.975 28.3563 18.735C28.1763 18.495 27.9163 18.375 27.5763 18.375ZM34.8963 21.57C35.6963 21.57 36.3363 21.825 36.8163 22.335C37.2963 22.845 37.5363 23.52 37.5363 24.36C37.5363 25.2 37.2963 25.875 36.8163 26.385C36.3363 26.895 35.6963 27.15 34.8963 27.15C34.0963 27.15 33.4563 26.895 32.9763 26.385C32.4963 25.875 32.2563 25.2 32.2563 24.36C32.2563 23.52 32.4963 22.845 32.9763 22.335C33.4563 21.825 34.0963 21.57 34.8963 21.57ZM34.8963 23.01C34.5563 23.01 34.2963 23.13 34.1163 23.37C33.9363 23.6 33.8463 23.93 33.8463 24.36C33.8463 24.79 33.9363 25.125 34.1163 25.365C34.2963 25.605 34.5563 25.725 34.8963 25.725C35.2363 25.725 35.4963 25.605 35.6763 25.365C35.8563 25.125 35.9463 24.79 35.9463 24.36C35.9463 23.93 35.8563 23.6 35.6763 23.37C35.4963 23.13 35.2363 23.01 34.8963 23.01Z" fill="#069169"/>
</svg>
